<?xml version="1.0" encoding="utf-8"?>
<!-- Generator: Adobe Illustrator 19.2.1, SVG Export Plug-In . SVG Version: 6.00 Build 0)  -->
<svg version="1.1" id="Layer_1" xmlns="http://www.w3.org/2000/svg" xmlns:xlink="http://www.w3.org/1999/xlink" x="0px" y="0px"
	 viewBox="0 0 352.1 85.8" style="enable-background:new 0 0 352.1 85.8;" xml:space="preserve">
<style type="text/css">
	.st0{fill:#00285E;}
	.st1{fill:#FFFFFF;}
	.st2{fill:#6CADDF;}
	.st3{fill-rule:evenodd;clip-rule:evenodd;fill:#00285E;}
	.st4{fill-rule:evenodd;clip-rule:evenodd;fill:#97C1E7;}
	.st5{fill-rule:evenodd;clip-rule:evenodd;fill:#FFFFFF;}
	.st6{fill:#FFC758;}
	.st7{fill:#EE3124;}
	.st8{fill:#D4A11E;}
	.st9{fill-rule:evenodd;clip-rule:evenodd;fill:#FFC758;}
	.st10{fill-rule:evenodd;clip-rule:evenodd;fill:#D4A11E;}
</style>
<g>
	<g>
		<path class="st0" d="M42.9,0C19.2,0,0,19.2,0,42.9c0,23.7,19.2,42.9,42.9,42.9c23.7,0,42.9-19.2,42.9-42.9
			C85.8,19.2,66.6,0,42.9,0"/>
		<path class="st1" d="M81.3,42.9c0-21.2-17.2-38.4-38.4-38.4C21.7,4.5,4.5,21.7,4.5,42.9c0,21.2,17.2,38.4,38.4,38.4
			C64.1,81.3,81.3,64.1,81.3,42.9"/>
		<path class="st2" d="M67.4,42.9c0-13.5-11-24.5-24.5-24.5c-13.5,0-24.5,11-24.5,24.5c0,13.5,11,24.5,24.5,24.5
			C56.4,67.4,67.4,56.4,67.4,42.9"/>
		<path class="st0" d="M42.9,69.3c-14.6,0-26.4-11.8-26.4-26.4c0-14.6,11.8-26.4,26.4-26.4c14.6,0,26.4,11.8,26.4,26.4
			C69.3,57.5,57.5,69.3,42.9,69.3L42.9,69.3z M42.9,18C29.1,18,18,29.1,18,42.9c0,13.7,11.2,24.9,24.9,24.9
			c13.7,0,24.9-11.2,24.9-24.9C67.8,29.1,56.6,18,42.9,18L42.9,18z"/>
		<path class="st2" d="M42.9,84C20.2,84,1.8,65.6,1.8,42.9c0-22.7,18.5-41.1,41.1-41.1C65.6,1.8,84,20.2,84,42.9
			C84,65.6,65.6,84,42.9,84 M42.9,2.6C20.7,2.6,2.7,20.7,2.7,42.9c0,22.2,18.1,40.2,40.2,40.2c22.2,0,40.2-18.1,40.2-40.2
			C83.1,20.7,65.1,2.6,42.9,2.6"/>
		<g>
			<path class="st2" d="M8.6,42l-0.7,0.2l-0.2-0.7l1.1-0.3h0.6v4H8.6V42z"/>
			<path class="st2" d="M10.4,44L10.4,44c0-0.5,0.2-0.8,0.6-1c-0.3-0.2-0.5-0.4-0.5-0.9v0c0-0.6,0.6-1.1,1.4-1.1
				c0.8,0,1.4,0.5,1.4,1.1v0c0,0.4-0.2,0.7-0.5,0.9c0.4,0.2,0.6,0.5,0.6,0.9v0c0,0.7-0.7,1.2-1.5,1.2C11.1,45.1,10.4,44.7,10.4,44z
				 M12.7,43.9L12.7,43.9c0-0.3-0.3-0.5-0.7-0.5c-0.4,0-0.7,0.2-0.7,0.5v0c0,0.3,0.3,0.5,0.7,0.5C12.4,44.4,12.7,44.2,12.7,43.9z
				 M12.5,42.2L12.5,42.2c0-0.3-0.2-0.5-0.6-0.5c-0.4,0-0.6,0.2-0.6,0.5v0c0,0.3,0.2,0.5,0.6,0.5C12.3,42.7,12.5,42.5,12.5,42.2z"/>
		</g>
		<g>
			<path class="st2" d="M73.7,43.5c-0.2,0.2-0.5,0.3-0.8,0.3c-0.9,0-1.4-0.5-1.4-1.3v0c0-0.8,0.6-1.4,1.5-1.4c0.5,0,0.8,0.1,1.2,0.4
				c0.3,0.3,0.5,0.7,0.5,1.5v0c0,1.3-0.6,2.2-1.7,2.2c-0.6,0-1-0.2-1.3-0.5L72,44c0.3,0.2,0.5,0.3,0.9,0.3
				C73.5,44.4,73.6,43.8,73.7,43.5z M73.7,42.4L73.7,42.4c0-0.4-0.3-0.6-0.7-0.6c-0.4,0-0.7,0.3-0.7,0.6v0c0,0.4,0.3,0.6,0.7,0.6
				C73.4,43,73.7,42.7,73.7,42.4z"/>
			<path class="st2" d="M77.4,44.2h-1.9l-0.1-0.6l2.2-2.5h0.7v2.4h0.5v0.7h-0.5v0.9h-0.8V44.2z M77.4,43.5v-1.2l-1.1,1.2H77.4z"/>
		</g>
		<path class="st1" d="M42.9,67.8C29.1,67.8,18,56.6,18,42.9C18,29.1,29.1,18,42.9,18c13.8,0,24.9,11.2,24.9,24.9
			C67.8,56.6,56.6,67.8,42.9,67.8 M42.9,18.9c-13.2,0-24,10.8-24,24c0,13.2,10.8,24,24,24c13.2,0,24-10.8,24-24
			C66.9,29.7,56.1,18.9,42.9,18.9"/>
		<path class="st3" d="M42.4,21.4c-12.3,0-19.4,1.6-19.4,1.6s-2.8,10.8-1.2,24.6c0.7,5.8,5.4,18.3,21,22.5l0,0
			c15.6-4.3,20.3-16.7,21-22.5c1.6-13.8-1.2-24.6-1.2-24.6s-7.1-1.6-19.4-1.6H42.4z"/>
		<path class="st4" d="M61.7,44.4c-0.1,4.2-0.8,16.7-18.9,23.6c-17.9-6.7-18.9-19.7-18.9-23.6H61.7z"/>
		<path class="st5" d="M61.2,43.7c0.5-10.4-1.3-18.8-1.3-18.8s-6.7-1.3-17-1.3c-10.3,0-17.2,1.4-17.2,1.4s-1.9,8.5-1.4,18.7H61.2z"
			/>
		<g>
			<path class="st2" d="M43.4,67.7L24.3,44.6C23.6,49.4,27.5,63.4,43.4,67.7z"/>
			<path class="st2" d="M30,44.5l17.7,21.3c1.8-0.8,3.1-1.7,4.4-2.7L36.6,44.5H30z"/>
			<path class="st2" d="M42.3,44.5l13,15.7c1.3-1.5,2.4-2.8,3.1-4.1l-9.6-11.6H42.3z"/>
			<path class="st2" d="M61.4,44.5l-6.5,0l5.5,6.6C61.3,49,61.4,45.6,61.4,44.5z"/>
		</g>
		<path class="st0" d="M50.5,53.1C50.5,53.1,50.5,53.1,50.5,53.1c-0.1-0.2-0.2-0.3-0.3-0.3l-1.1-0.4c-0.1,0-0.2,0-0.3,0
			c-0.1-0.4-0.3-0.7-0.6-0.9c0,0-0.1-0.1-0.1-0.1c-0.1-0.1-0.2-0.1-0.2-0.1c-0.1-0.1-0.3-0.1-0.4-0.1c-0.3-0.1-0.6-0.2-1-0.5
			c-0.4-0.3-0.5-0.5-0.7-0.8c0-0.1-0.1-0.1-0.1-0.2c-0.1-0.2-0.2-0.3-0.4-0.4c-0.3-0.2-0.6-0.3-0.9-0.3c-0.1,0-0.1,0-0.2,0
			c0,0,0,0,0,0c0-0.1,0-0.3-0.1-0.4l-0.7-0.9c-0.1-0.1-0.2-0.2-0.4-0.2h0c-0.2,0-0.3,0.1-0.4,0.2l-0.7,0.9c-0.1,0.1-0.1,0.3-0.1,0.4
			l0,0c-0.1,0-0.1,0-0.2,0c-0.3,0-0.7,0.1-0.9,0.3c0,0-0.1,0.1-0.1,0.1c-0.1,0.1-0.1,0.1-0.2,0.2c-0.1,0.1-0.2,0.2-0.3,0.4
			c-0.2,0.3-0.4,0.5-0.8,0.8c-0.4,0.3-0.7,0.4-0.9,0.4c-0.1,0-0.1,0-0.2,0.1c-0.2,0-0.4,0.1-0.5,0.3c-0.3,0.2-0.5,0.6-0.6,1
			c-0.1,0-0.2-0.1-0.3,0l-1.1,0.4c-0.2,0-0.3,0.2-0.3,0.3c0,0,0,0,0,0c0,0.2,0,0.3,0.1,0.4l0.7,0.9c0.1,0.1,0.2,0.2,0.3,0.2
			c-0.2,0.4-0.2,0.8-0.1,1.2c0,0,0,0.1,0.1,0.1c0,0.1,0.1,0.2,0.1,0.2c0.1,0.1,0.2,0.2,0.3,0.4c0.2,0.3,0.4,0.5,0.5,1
			c0.1,0.4,0.1,0.7,0.1,1c0,0.1,0,0.1,0,0.2c0,0.2,0,0.4,0.1,0.6c0.1,0.4,0.4,0.7,0.7,0.9c0,0.1-0.1,0.2-0.1,0.2l0,1.1
			c0,0.2,0.1,0.3,0.2,0.4c0,0,0,0,0,0c0.1,0.1,0.3,0.1,0.4,0.1l1.1-0.3c0.1,0,0.2-0.1,0.2-0.2c0.3,0.3,0.8,0.5,1.2,0.4
			c0.1,0,0.2,0,0.3,0c0.2,0,0.3-0.1,0.4-0.1c0.3-0.1,0.6-0.2,1.1-0.2c0.5,0,0.7,0.1,1,0.2c0.1,0,0.1,0,0.2,0.1
			c0.2,0.1,0.4,0.1,0.6,0.1c0.4,0,0.8-0.2,1.1-0.4c0.1,0.1,0.1,0.1,0.2,0.2l1.1,0.3c0.2,0,0.3,0,0.5-0.1c0,0,0,0,0,0
			c0.1-0.1,0.2-0.2,0.2-0.4l0-1.1c0-0.1,0-0.2-0.1-0.3c0.3-0.2,0.6-0.5,0.7-0.9c0,0,0-0.1,0-0.1c0-0.1,0-0.2,0-0.3
			c0-0.2,0-0.3,0-0.4c0-0.3,0-0.7,0.2-1.1c0.1-0.4,0.3-0.7,0.5-0.9c0-0.1,0.1-0.1,0.1-0.2c0.1-0.2,0.2-0.3,0.3-0.5
			c0.1-0.4,0.1-0.8-0.1-1.2c0.1,0,0.2-0.1,0.2-0.2l0.7-0.9C50.6,53.4,50.6,53.3,50.5,53.1z"/>
		<ellipse class="st6" cx="42.9" cy="55.5" rx="0.6" ry="0.6"/>
		<path class="st7" d="M42.9,50.1c-0.1-0.4-0.3-0.7-0.7-0.9l0.7-0.9l0.6,0.9C43.2,49.4,43,49.8,42.9,50.1 M37.7,53.9
			c-0.3-0.2-0.6-0.5-0.7-0.9l-1,0.3l0.6,0.9C36.9,54,37.3,53.9,37.7,53.9 M39.7,59.8c-0.3,0.2-0.7,0.4-1.1,0.4l0,1.1l1-0.3
			C39.6,60.6,39.6,60.2,39.7,59.8 M46,59.8c0.1,0.4,0.2,0.8,0,1.1l1,0.3l0-1.1C46.7,60.2,46.3,60.1,46,59.8 M47.9,53.9
			c0.4,0,0.8,0.1,1.1,0.3l0.6-0.9l-1-0.4C48.5,53.3,48.3,53.7,47.9,53.9 M41.6,59.9c-0.5,0-0.9-0.4-0.9-0.9c0-0.1-0.1-0.1-0.1,0
			c-0.3,0.4-0.6,0.7-0.6,1.1c0,0.6,0.5,1.1,1.1,1.1c0,0,0.1,0,0.1,0c0.1,0,0.1,0,0.2,0c0.4-0.1,0.8-0.3,1.5-0.3
			c0.6,0,0.9,0.2,1.2,0.3c0.1,0.1,0.3,0.1,0.4,0.1c0.6,0,1.1-0.5,1.1-1.1c0-0.4-0.3-0.7-0.6-1.1c0,0-0.1,0-0.1,0
			c0,0.5-0.4,0.9-0.9,0.9c-0.4,0-0.8-0.3-1.3-0.3C42.5,59.5,41.9,59.9,41.6,59.9z M41,58.7c0,0.4,0.3,0.7,0.7,0.7c0,0,0.1,0,0.1,0
			c0,0,0,0,0.1,0c0,0,0,0,0,0c0.2-0.1,0.5-0.2,0.9-0.2c0.4,0,0.7,0.1,0.9,0.2c0.1,0,0.2,0,0.3,0c0.4,0,0.7-0.3,0.7-0.7
			c0-0.1,0-0.2-0.1-0.3c0,0,0-0.1-0.1-0.1c0,0-1.2-1.7-1.3-1.7c-0.1-0.1-0.1,0-0.2,0c-0.1,0-0.2,0.1-0.3,0.1c-0.1,0-0.2,0-0.3-0.1
			c-0.1,0-0.1-0.1-0.2,0c0,0.1-0.9,1.2-1.2,1.6C41.1,58.3,41,58.5,41,58.7z M46.6,58.1c-0.1,0.5-0.6,0.7-1.1,0.6
			c-0.1,0-0.1,0-0.1,0.1c0.3,0.4,0.5,0.7,0.9,0.9c0.6,0.2,1.2-0.1,1.4-0.7c0,0,0-0.1,0-0.1c0,0,0-0.1,0-0.2c0-0.4-0.1-0.8,0.2-1.5
			c0.2-0.6,0.4-0.8,0.6-1.1c0.1-0.1,0.2-0.2,0.2-0.4c0.2-0.6-0.1-1.2-0.7-1.4c-0.4-0.1-0.8,0-1.2,0.2c0,0,0,0.1,0,0.1
			c0.5,0.1,0.7,0.6,0.6,1.1c-0.1,0.3-0.5,0.7-0.7,1.1C46.6,57.2,46.7,57.8,46.6,58.1z M45.3,58.3c0.4,0.1,0.8-0.1,0.9-0.5
			c0,0,0-0.1,0-0.1c0,0,0,0,0-0.1c0,0,0,0,0,0c0-0.3,0-0.5,0.1-0.9c0.1-0.4,0.3-0.6,0.5-0.8c0.1-0.1,0.1-0.1,0.1-0.2
			c0.1-0.4-0.1-0.8-0.5-0.9c-0.1,0-0.2,0-0.3,0c0,0-0.1,0-0.1,0c0,0-2,0.6-2,0.7c-0.1,0-0.1,0.1-0.1,0.2c0,0.1,0,0.2,0,0.3
			c0,0.1-0.1,0.2-0.1,0.3c-0.1,0.1-0.1,0.1,0,0.2c0.1,0.1,0.9,1.3,1.2,1.6C45,58.1,45.1,58.2,45.3,58.3z M46.5,52.8
			c0.4,0.3,0.5,0.8,0.2,1.2c0,0.1,0,0.1,0.1,0.1c0.5-0.1,0.9-0.3,1.1-0.6c0.4-0.5,0.2-1.2-0.2-1.5c0,0-0.1,0-0.1-0.1
			c0,0-0.1-0.1-0.2-0.1c-0.4-0.2-0.8-0.2-1.4-0.6c-0.5-0.3-0.7-0.7-0.9-0.9c-0.1-0.1-0.2-0.2-0.3-0.3c-0.5-0.3-1.2-0.2-1.5,0.2
			C43,50.6,43,51,43.1,51.5c0,0,0.1,0.1,0.1,0c0.3-0.4,0.8-0.5,1.2-0.2c0.3,0.2,0.5,0.7,0.9,1C45.5,52.5,46.2,52.6,46.5,52.8z
			 M46.2,54.1c0.2-0.3,0.2-0.8-0.2-1c0,0-0.1-0.1-0.1-0.1c0,0,0,0-0.1,0c0,0,0,0,0,0c-0.2-0.1-0.5-0.1-0.9-0.4
			c-0.4-0.3-0.5-0.5-0.6-0.7c0-0.1-0.1-0.1-0.2-0.2c-0.3-0.2-0.8-0.2-1,0.2c-0.1,0.1-0.1,0.2-0.1,0.3c0,0,0,0.1,0,0.1c0,0,0,2,0,2.1
			c0,0.1,0.1,0.1,0.1,0.1c0.1,0,0.2,0.1,0.3,0.1c0.1,0.1,0.2,0.1,0.2,0.2c0,0.1,0.1,0.1,0.2,0.1c0.1,0,1.5-0.5,1.9-0.6
			C46,54.3,46.1,54.2,46.2,54.1z M41.4,51.3c0.4-0.3,0.9-0.2,1.2,0.2c0,0.1,0.1,0,0.1,0c0-0.5,0-0.9-0.2-1.2c-0.3-0.5-1-0.6-1.5-0.2
			c0,0-0.1,0-0.1,0.1c0,0-0.1,0.1-0.1,0.1c-0.3,0.3-0.5,0.7-1,1.1c-0.5,0.4-0.8,0.4-1.2,0.5c-0.1,0-0.3,0.1-0.4,0.2
			c-0.5,0.3-0.6,1-0.2,1.5c0.2,0.3,0.6,0.5,1.1,0.6c0,0,0.1,0,0-0.1c-0.3-0.4-0.2-0.9,0.2-1.2c0.3-0.2,0.8-0.2,1.2-0.5
			C40.8,52.1,41.1,51.5,41.4,51.3z M42.5,51.9c-0.2-0.3-0.7-0.4-1-0.2c0,0-0.1,0-0.1,0.1c0,0,0,0,0,0c0,0,0,0,0,0
			c-0.2,0.2-0.3,0.4-0.6,0.7c-0.4,0.3-0.6,0.3-0.8,0.4c-0.1,0-0.2,0.1-0.2,0.1c-0.3,0.2-0.4,0.7-0.2,1c0.1,0.1,0.1,0.1,0.2,0.2
			c0,0,0.1,0,0.1,0.1c0,0,2,0.6,2,0.6c0.1,0,0.1,0,0.2-0.1c0,0,0.1-0.2,0.2-0.2c0.1-0.1,0.2-0.1,0.3-0.1c0.1,0,0.1,0,0.1-0.1
			c0-0.1,0-1.5,0-2C42.7,52.2,42.6,52.1,42.5,51.9z M38.3,55.7c-0.1-0.5,0.1-0.9,0.6-1.1c0.1,0,0.1-0.1,0-0.1
			c-0.5-0.2-0.9-0.3-1.2-0.2c-0.6,0.2-0.9,0.8-0.7,1.4c0,0,0,0.1,0,0.1c0,0.1,0,0.1,0.1,0.2c0.2,0.4,0.5,0.7,0.8,1.3
			c0.2,0.6,0.1,0.9,0.1,1.3c0,0.1,0,0.3,0,0.4c0.2,0.6,0.8,0.9,1.4,0.7c0.4-0.1,0.6-0.5,0.9-0.9c0,0,0-0.1-0.1-0.1
			c-0.5,0.1-0.9-0.1-1.1-0.5c-0.1-0.3,0-0.9-0.1-1.3C38.9,56.4,38.4,56,38.3,55.7z M39.3,54.8c-0.4,0.1-0.6,0.5-0.5,0.9
			c0,0,0,0.1,0.1,0.1c0,0,0,0,0,0c0,0,0,0,0,0c0.2,0.2,0.3,0.4,0.5,0.8c0.1,0.4,0.1,0.7,0.1,0.9c0,0.1,0,0.2,0,0.3
			c0.1,0.4,0.5,0.6,0.9,0.5c0.1,0,0.2-0.1,0.3-0.2c0,0,0.1-0.1,0.1-0.1c0,0,1.2-1.7,1.2-1.7c0.1-0.1,0-0.1,0-0.2
			c0,0-0.1-0.2-0.1-0.3c0-0.1,0-0.2,0-0.3c0-0.1,0-0.1-0.1-0.2c-0.1,0-1.5-0.5-1.9-0.6C39.6,54.7,39.5,54.7,39.3,54.8z"/>
		<path class="st6" d="M48.9,33.4l4.4-1.5c0,0-0.4,1.8-0.3,3.3c0.1,1.8,1.2,3.2,1.2,3.2l-5.4,1.9L48.9,33.4z"/>
		<g>
			<path class="st8" d="M54.2,38.4c0,0-1-1.4-1.1-3c-0.1-1.2,0-2.3,0.2-3.5c-0.2,0.8-0.9,3.2-2.9,5.4c-0.8,0.9-1.2,1.7-1.3,2.2
				L49,29.1l0,0l0,0c0,0-1,0.4-1.2,0.4c-0.1,0-0.2,0.1-0.2,0.2c0,0.1-0.1,0.1-0.1,0.1c-0.1,0-0.7,0.2-1.1,0.4c-0.1,0,0,0.1,0,0.1
				c0.5,0,1.2-0.1,1.3-0.1c0.1,0,0.1-0.1,0.2-0.1c0,0,0,0,0,0c0-0.1,0.1-0.1,0.2-0.1c0.1,0,0.4,0,0.7-0.1L48.6,41l0.5,0l0-0.8
				L54.2,38.4z"/>
		</g>
		<g>
			<path class="st6" d="M34.6,40.6c0,0-0.8-0.6-1-1.8c-0.2-1.2,0.4-1.9,0.4-1.9l5.4-1.8c0,0-0.3,1.1,0,2.3c0.4,1.5,1.2,2.6,1.2,2.6
				s-2-0.4-3.9-0.1C34.8,40,34.6,40.6,34.6,40.6z"/>
		</g>
		<path class="st6" d="M28.5,39.2c0,0,0.7-1.8,2.6-3.8c1.5-1.5,2.5-2,2.5-2s-0.9,1.2-1.2,3.3c-0.2,1.3,0,2.8,0,2.8s-1-0.2-2.2-0.3
			C29.2,39.1,28.5,39.2,28.5,39.2z"/>
		<path class="st8" d="M33.6,33.4c0,0-0.8,1.2-1.2,3.3c-0.2,1.3,0,2.8,0,2.8s-0.3-0.1-0.8-0.2C29.2,38.8,33.6,33.4,33.6,33.4z"/>
		<path class="st8" d="M36.7,34.9l0-4.8l0,0l0,0l0,0l0,0c-0.1,0-1,0.4-1.1,0.4c-0.1,0-0.2,0.1-0.2,0.2c0,0.1,0,0.1-0.1,0.1
			c-0.1,0-0.7,0.2-1.1,0.4c-0.1,0,0,0.1,0,0.1c0.5,0,1.2-0.1,1.3-0.1c0.1,0,0.1-0.1,0.2-0.1c0,0,0,0,0,0c0-0.1,0.1-0.1,0.2-0.1
			c0.1,0,0.4,0,0.7-0.1l0,4.1H36.7z"/>
		<path class="st8" d="M42.9,30.6h0.4l0-4.6h0l0,0c0,0-1.1,0.4-1.2,0.4c-0.1,0-0.2,0.1-0.2,0.2c0,0.1-0.1,0.1-0.1,0.1
			c-0.1,0-0.7,0.2-1.1,0.4c-0.1,0,0,0.1,0,0.1c0.5,0,1.2-0.1,1.3-0.1c0.1,0,0.1-0.1,0.2-0.1c0,0,0,0,0,0c0-0.1,0.1-0.1,0.2-0.1
			c0.1,0,0.4,0,0.6-0.1L42.9,30.6z"/>
		<path class="st6" d="M42,27C42,27,42,27,42,27c0.1,0,0.2-0.1,0.2-0.1c0,0,0,0,0,0c0-0.1,0-0.1,0.1-0.1l-0.1-0.4
			c-0.1,0-0.2,0.1-0.2,0.2c0,0.1,0,0.1-0.1,0.1L42,27z"/>
		<path class="st6" d="M35.3,31.2C35.3,31.2,35.4,31.2,35.3,31.2c0.1,0,0.2-0.1,0.2-0.1c0,0,0,0,0,0c0-0.1,0-0.1,0.1-0.1l-0.1-0.4
			c-0.1,0-0.2,0.1-0.2,0.2c0,0.1,0,0.1-0.1,0.1L35.3,31.2z"/>
		<path class="st6" d="M47.7,30.1C47.7,30.1,47.7,30.1,47.7,30.1c0.1,0,0.2-0.1,0.2-0.1c0,0,0,0,0,0c0-0.1,0.1-0.1,0.1-0.1l-0.1-0.4
			c-0.1,0-0.2,0.1-0.2,0.2c0,0.1,0,0.1-0.1,0.1L47.7,30.1z"/>
		<path class="st8" d="M40.5,39.9c0,0-0.9-1.3-1.2-2.6c-0.3-1.1,0-2.2,0-2.2s-0.6,2-1.9,3c-1,0.7-3.3,1.4-2.7,2.4
			c0.1-0.1,0.3-0.4,1.3-0.6c0.1,0,0.2,0,0.4-0.1l0,1.6l0.5,0l0-1.7C38.5,39.6,40.5,39.9,40.5,39.9z"/>
		<g>
			<path class="st6" d="M34.1,36.6c0,0-0.6-0.4-0.6-1.6c0.1-1.3,0.7-1.8,0.7-1.8l4.2-1.4c0,0-0.3,0.6-0.1,1.6c0.3,1.1,1,1.8,1,1.8
				s-2.1,0-4,0.7C34.4,36.1,34.1,36.6,34.1,36.6z"/>
		</g>
		<g>
			<path class="st8" d="M36.6,34c1.2-1,1.9-2.2,1.9-2.2s-0.2,0.8,0,1.5c0.2,1.2,0.9,1.8,0.9,1.8s-1.7,0-3.5,0.5
				c-1.2,0.3-1.6,0.8-1.7,1C33.7,35.7,35.3,35,36.6,34z"/>
		</g>
		<g>
			<path class="st6" d="M41.3,40.9c0,0-1.1-0.9-1.4-2.5c-0.2-1.3,0.6-2.2,0.6-2.2L47,34c0,0-0.4,1.4,0,2.8c0.4,1.6,1.8,3.5,1.8,3.5
				s-2.7-0.8-5.1-0.5C41.5,40.1,41.3,40.9,41.3,40.9z"/>
		</g>
		<g>
			<path class="st6" d="M40,30.5c0-1,0.6-1.8,0.7-1.8l4.7-1.6c0,0-0.3,0.7-0.2,1.4c0.1,1.2,0.8,1.8,0.8,1.8s-1.8-0.1-4,0.7
				c-1.2,0.4-1.3,1-1.3,1S40,31.8,40,30.5z"/>
		</g>
		<g>
			<path class="st8" d="M43.7,29.3c0.8-0.7,1.7-2.2,1.7-2.2s-0.3,0.7-0.2,1.4c0.1,1.2,0.8,1.8,0.8,1.8s-2,0-3.9,0.6
				c-0.8,0.3-1.3,0.7-1.4,1C40.3,31,42.5,30.3,43.7,29.3z"/>
		</g>
		<g>
			<path class="st6" d="M40.7,35.9c0,0-0.7-0.8-0.8-2c-0.1-1.3,0.6-1.8,0.7-1.8l5.4-1.9c0,0-0.1,0.4,0,1.5c0.1,0.9,1,2.2,1,2.2
				s-2.9,0.1-4.7,0.8C41.1,35.1,40.7,35.9,40.7,35.9z"/>
		</g>
		<g>
			<path class="st8" d="M44.2,32.8c1.2-1,1.7-2.5,1.7-2.5s-0.1,0.9,0,1.5C46.2,33,47,34,47,34s-2.5,0-4.3,0.6
				c-1.2,0.4-1.9,1.1-2,1.3C40.4,34.9,43.1,33.8,44.2,32.8z"/>
		</g>
		<g>
			<path class="st8" d="M48.9,40.4c0,0-1.5-1.9-1.9-3.6c-0.3-1.1-0.1-2.4,0-2.8c-0.2,0.6-0.8,2.5-2.2,3.8c-1.4,1.3-4.1,1.9-3.5,3.1
				c0.1-0.2,0.4-0.6,1.5-0.9l0,1.5l0.5,0l0-1.6C45.8,39.5,48.9,40.4,48.9,40.4z"/>
		</g>
		<path class="st9" d="M51.4,43.9c0.3-0.1,0.7-0.1,1.2-0.3c0,0-0.1,0-0.1-0.1C52,43,52.1,42.4,52.4,42c1.2-1.1,1.2-2,1.2-2
			s-3,0.6-6.9,0.8c-0.3,0-1.2,0.4-1.4,0.4c-0.5,0-1.1,0-1.7,0c-7.3,0.1-9.4-0.5-11.8-0.9c-2.4-0.5-3.5-1-3.5-1l-0.1,0.3
			c0,0,1.9,0.7,3.3,1.4c0.3,0.1,1.4,1.9,1.8,2.4h-8.7c-0.5-10,1.5-18.2,1.5-18.2S32.8,24,42.9,24l0-1.1c-10.7,0-17.8,1.5-17.8,1.5
			s-3.1,10.9-1.5,24c0.7,5.4,5.2,15.6,19.2,20.3l0.6-0.9L42.8,67c-13.2-4.4-17-13.4-17.7-18.5c-0.1-1.1-0.3-2.3-0.3-3.4h18.1v-1.5
			h-9.3c0.2-0.7,0.9-0.8,1.7-0.6c0.8,0.2,1.7,0.4,2.5,0.4c2-0.1,1.7-0.6,1.9-0.6c2,0.1,2.8,0.6,4.6,0.6c1.6,0,2.2-0.5,2.3-0.5
			c2,0,2.7,0.9,4.7,1.1C51.3,43.9,51.4,43.9,51.4,43.9z"/>
		<path class="st10" d="M60.6,24.4c0,0-7.1-1.5-17.7-1.5l0,1.1c10.1,0,16.7,1.4,16.7,1.4s1.9,8.2,1.5,18.2h-8.8
			c-0.7-0.7-0.3-1.6-0.1-1.8c1-0.9,1-1.6,1-1.6s-2.4,0.6-6.3,0.8c-0.3,0-1.3,0.5-1.6,0.5c-0.5,0-1.3,0-1.9,0c-5.1,0-7.6-0.1-12-1
			c0.1,0.1,0.1,0.1,0.2,0.3c0,0,1.9,0.5,2,0.6c0.3,0.4,0.7,0.7,1.1,0.9c0.7,0.4,1.8,0.7,2.6,0.8c2,0.1,1.6-0.6,1.8-0.6
			c2,0,3.3,0.7,5.1,0.7c1.6,0,1.7-0.5,1.8-0.5c1.6-0.1,3.2,0.6,4.6,1.1h-8v1.5h18.1c-0.1,1.1-0.2,2.2-0.3,3.4
			c-0.7,5.1-4.5,14-17.7,18.5v1.7C56.8,64,61.3,53.8,62,48.4C63.7,35.4,60.6,24.4,60.6,24.4z"/>
		<g>
			<polygon class="st0" points="10.1,29.2 10.8,27.8 14.1,27.5 12.5,24.7 13.2,23.3 19.1,26.4 18.4,27.7 14.6,25.6 16.2,28.6 
				16.2,28.6 12.8,29 16.7,31 16,32.3 			"/>
			<path class="st0" d="M16.8,18.7l0.9-1l6.8,2.5l-1.1,1.1L22,20.8l-1.9,2l0.7,1.5l-1,1.1L16.8,18.7z M20.7,20.3l-2.2-0.8l1,2.1
				L20.7,20.3z"/>
			<polygon class="st0" points="22.1,13.9 23.3,13.2 28.1,15 25.9,11.5 27.2,10.8 30.6,16.5 29.5,17.1 24.6,15.2 26.8,18.8 
				25.6,19.5 			"/>
			<path class="st0" d="M31,12.7L31,12.7c-0.5-1.8,0.4-3.7,2.4-4.3c1.2-0.3,2-0.2,2.8,0.3L35.6,10c-0.6-0.3-1.2-0.4-1.8-0.2
				c-1.1,0.3-1.6,1.4-1.3,2.5l0,0c0.3,1.1,1.3,1.8,2.4,1.5c0.7-0.2,1.1-0.6,1.5-1.2l1.2,0.6c-0.5,0.9-1.1,1.5-2.3,1.9
				C33.4,15.6,31.6,14.5,31,12.7z"/>
			<polygon class="st0" points="39,7.4 40.5,7.3 40.5,10 43.2,9.9 43.2,7.3 44.6,7.2 44.8,13.9 43.4,13.9 43.3,11.2 40.6,11.3 
				40.7,14 39.2,14 			"/>
			<path class="st0" d="M53.3,14.8l1.2-0.6c0.3,0.7,0.8,1.2,1.5,1.6c0.5,0.3,1,0.2,1.1-0.2l0,0c0.2-0.3,0-0.6-0.9-1.3
				c-1.1-0.9-1.7-1.6-1.1-2.8l0,0c0.5-1.1,1.7-1.4,3-0.8c0.9,0.4,1.5,1,1.9,1.8l-1.2,0.7c-0.4-0.6-0.8-1.1-1.3-1.3
				c-0.5-0.2-0.9-0.1-1,0.2l0,0c-0.2,0.4,0,0.6,0.9,1.4c1.1,0.9,1.6,1.6,1.1,2.7l0,0c-0.6,1.2-1.8,1.4-3.1,0.8
				C54.5,16.5,53.7,15.8,53.3,14.8z"/>
			<polygon class="st0" points="63,15.2 61.4,13.9 62.2,12.9 66.6,16.2 65.7,17.3 64.1,16 60.9,20.3 59.7,19.4 			"/>
			<path class="st0" d="M73.5,24.6l1.4,2.7c0.4,0.8,0.5,1.5,0.3,2c-0.2,0.5-0.5,0.9-1.1,1.2l0,0c-1,0.5-1.8,0.3-2.5-0.3l-1.4,2.5
				l-0.8-1.5l1.3-2.2l-0.5-1l-1.9,1l-0.7-1.3L73.5,24.6z M71.9,28.7c0.3,0.6,0.8,0.8,1.3,0.6l0,0c0.6-0.3,0.7-0.8,0.3-1.5L73,26.5
				l-1.7,0.9L71.9,28.7z"/>
			<polygon class="st0" points="48.8,11.8 51.3,12.3 51.9,11.2 49.1,10.5 49.4,9.2 52.9,10 53.1,8.7 48.2,7.6 46.8,14.1 51.8,15.2 
				52.1,13.9 48.5,13.2 			"/>
			<polygon class="st0" points="68.6,18.2 63.5,22.4 66.7,26.3 67.7,25.5 65.4,22.7 66.5,21.8 68.1,23.8 69.4,23.3 67.5,21 
				68.5,20.1 70.8,22.9 71.8,22 			"/>
			<g>
				<path class="st0" d="M31.6,74.9L31.6,74.9c0-1.9,1.5-3.5,3.5-3.5c1.3,0,2,0.4,2.7,1l-0.9,1.1c-0.5-0.5-1.1-0.8-1.7-0.8
					c-1.1,0-2,0.9-2,2.1v0c0,1.2,0.8,2.1,2,2.1c0.8,0,1.2-0.3,1.8-0.8l0.9,1c-0.7,0.7-1.5,1.2-2.8,1.2
					C33.1,78.4,31.6,76.8,31.6,74.9z"/>
				<path class="st0" d="M39.3,71.5h1.5v6.8h-1.5V71.5z"/>
				<path class="st0" d="M44.3,72.9h-2.1v-1.4h5.6v1.4h-2.1v5.4h-1.5V72.9z"/>
				<path class="st0" d="M51.1,75.6l-2.6-4.1h1.7l1.6,2.7l1.6-2.7h1.7l-2.6,4.1v2.7h-1.5V75.6z"/>
			</g>
		</g>
	</g>
	<rect x="104.8" y="0" class="st0" width="0.8" height="85.8"/>
	<g>
		<path class="st0" d="M125.2,13L125.2,13c0-6.8,5.3-12.3,12.6-12.3c7.3,0,12.6,5.4,12.6,12.2v0.1c0,6.7-5.3,12.3-12.6,12.3
			C130.5,25.2,125.2,19.7,125.2,13z M145,13L145,13c0-4.1-3-7.5-7.2-7.5c-4.2,0-7.1,3.3-7.1,7.4v0.1c0,4.1,3,7.4,7.2,7.4
			S145,17,145,13z"/>
		<path class="st0" d="M154.4,1.1h18v4.7h-12.8v5h11.3v4.7h-11.3v9.2h-5.2V1.1z"/>
		<path class="st0" d="M175.9,1.1h18v4.7h-12.8v5h11.3v4.7h-11.3v9.2h-5.2V1.1z"/>
		<path class="st0" d="M197.7,1.1h5.2v23.7h-5.2V1.1z"/>
		<path class="st0" d="M207.1,13L207.1,13c0-6.8,5.1-12.3,12.4-12.3c4.5,0,7.1,1.5,9.3,3.7l-3.3,3.8c-1.8-1.7-3.7-2.7-6.1-2.7
			c-4,0-6.9,3.3-6.9,7.4v0.1c0,4.1,2.8,7.4,6.9,7.4c2.7,0,4.4-1.1,6.2-2.8l3.3,3.4c-2.4,2.6-5.1,4.2-9.7,4.2
			C212.3,25.2,207.1,19.8,207.1,13z"/>
		<path class="st0" d="M232.7,1.1h5.2v23.7h-5.2V1.1z"/>
		<path class="st0" d="M251.2,0.9h4.8l10.2,23.9h-5.4l-2.2-5.3h-10l-2.2,5.3h-5.3L251.2,0.9z M256.7,14.8l-3.1-7.7l-3.1,7.7H256.7z"
			/>
		<path class="st0" d="M269.2,1.1h5.2v19h11.8v4.7h-17V1.1z"/>
		<path class="st0" d="M124.7,51.7l3.1-3.7c2.1,1.8,4.4,2.9,7.1,2.9c2.1,0,3.4-0.8,3.4-2.2v-0.1c0-1.3-0.8-2-4.8-3
			c-4.8-1.2-7.9-2.5-7.9-7.2v-0.1c0-4.3,3.5-7.1,8.3-7.1c3.5,0,6.4,1.1,8.8,3L140,38c-2.1-1.5-4.2-2.3-6.2-2.3c-2,0-3,0.9-3,2.1v0.1
			c0,1.6,1,2.1,5.1,3.1c4.8,1.3,7.5,3,7.5,7.1v0.1c0,4.7-3.6,7.3-8.7,7.3C131.1,55.4,127.5,54.2,124.7,51.7z"/>
		<path class="st0" d="M146.9,45V31.4h5.2v13.4c0,3.9,1.9,5.9,5.1,5.9c3.2,0,5.1-1.9,5.1-5.7V31.4h5.2v13.4c0,7.2-4,10.7-10.4,10.7
			C150.8,55.5,146.9,51.9,146.9,45z"/>
		<path class="st0" d="M172.2,31.4h9.7c5.7,0,9.1,3.4,9.1,8.2v0.1c0,5.5-4.3,8.3-9.6,8.3h-4v7.1h-5.2V31.4z M181.5,43.4
			c2.6,0,4.1-1.6,4.1-3.6v-0.1c0-2.3-1.6-3.6-4.2-3.6h-4v7.2H181.5z"/>
		<path class="st0" d="M194.1,31.4h9.7c5.7,0,9.1,3.4,9.1,8.2v0.1c0,5.5-4.3,8.3-9.6,8.3h-4v7.1h-5.2V31.4z M203.5,43.4
			c2.6,0,4.1-1.6,4.1-3.6v-0.1c0-2.3-1.6-3.6-4.2-3.6h-4v7.2H203.5z"/>
		<path class="st0" d="M215,43.3L215,43.3c0-6.8,5.3-12.3,12.6-12.3c7.3,0,12.6,5.4,12.6,12.2v0.1c0,6.7-5.3,12.3-12.6,12.3
			C220.2,55.5,215,50.1,215,43.3z M234.7,43.3L234.7,43.3c0-4.1-3-7.5-7.2-7.5c-4.2,0-7.1,3.3-7.1,7.4v0.1c0,4.1,3,7.4,7.2,7.4
			C231.8,50.7,234.7,47.4,234.7,43.3z"/>
		<path class="st0" d="M244.1,31.4H255c3,0,5.3,0.8,6.9,2.4c1.3,1.3,2,3.2,2,5.4v0.1c0,3.8-2.1,6.2-5.1,7.3l5.8,8.5h-6.1l-5.1-7.6
			h-4.1v7.6h-5.2V31.4z M254.6,42.9c2.5,0,4-1.4,4-3.4v-0.1c0-2.2-1.6-3.4-4.1-3.4h-5.2v6.8H254.6z"/>
		<path class="st0" d="M273.4,36.2h-7.2v-4.8h19.6v4.8h-7.2v18.9h-5.2V36.2z"/>
		<path class="st0" d="M289.2,31.4H307V36h-12.7v4.8h11.2v4.6h-11.2v5h12.9v4.6h-18V31.4z"/>
		<path class="st0" d="M311.2,31.4H322c3,0,5.3,0.8,6.9,2.4c1.3,1.3,2,3.2,2,5.4v0.1c0,3.8-2.1,6.2-5.1,7.3l5.8,8.5h-6.1l-5.1-7.6
			h-4.1v7.6h-5.2V31.4z M321.7,42.9c2.5,0,4-1.4,4-3.4v-0.1c0-2.2-1.6-3.4-4.1-3.4h-5.2v6.8H321.7z"/>
		<path class="st0" d="M333.3,51.7l3.1-3.7c2.1,1.8,4.4,2.9,7.1,2.9c2.1,0,3.4-0.8,3.4-2.2v-0.1c0-1.3-0.8-2-4.8-3
			c-4.8-1.2-7.9-2.5-7.9-7.2v-0.1c0-4.3,3.5-7.1,8.3-7.1c3.5,0,6.4,1.1,8.8,3l-2.7,3.9c-2.1-1.5-4.2-2.3-6.2-2.3c-2,0-3,0.9-3,2.1
			v0.1c0,1.6,1,2.1,5.1,3.1c4.8,1.3,7.5,3,7.5,7.1v0.1c0,4.7-3.6,7.3-8.7,7.3C339.8,55.4,336.2,54.2,333.3,51.7z"/>
		<path class="st0" d="M125.2,73.7L125.2,73.7c0-6.8,5.1-12.3,12.4-12.3c4.5,0,7.1,1.5,9.3,3.7l-3.3,3.8c-1.8-1.7-3.7-2.7-6.1-2.7
			c-4,0-6.9,3.3-6.9,7.4v0.1c0,4.1,2.8,7.4,6.9,7.4c2.7,0,4.4-1.1,6.2-2.8l3.3,3.4c-2.4,2.6-5.1,4.2-9.7,4.2
			C130.4,85.9,125.2,80.5,125.2,73.7z"/>
		<path class="st0" d="M150.6,61.8h5.2v19h11.8v4.7h-17V61.8z"/>
		<path class="st0" d="M169.8,75.3V61.8h5.2v13.4c0,3.9,1.9,5.9,5.1,5.9c3.2,0,5.1-1.9,5.1-5.7V61.8h5.2v13.4
			c0,7.2-4,10.7-10.4,10.7C173.7,85.8,169.8,82.3,169.8,75.3z"/>
		<path class="st0" d="M195.1,61.8h11c2.7,0,4.8,0.7,6.2,2.1c1.1,1.1,1.6,2.4,1.6,4v0.1c0,2.7-1.4,4.2-3.1,5.1
			c2.7,1,4.4,2.6,4.4,5.8v0.1c0,4.3-3.5,6.5-8.9,6.5h-11.3V61.8z M208.7,68.8c0-1.6-1.2-2.4-3.4-2.4h-5.1v5h4.8
			C207.3,71.3,208.7,70.6,208.7,68.8L208.7,68.8z M206.2,75.7h-6v5.2h6.2c2.3,0,3.7-0.8,3.7-2.6v-0.1
			C210.1,76.6,208.9,75.7,206.2,75.7z"/>
	</g>
</g>
</svg>
